<?xml version="1.0" encoding="us-ascii" standalone="no"?><svg xmlns="http://www.w3.org/2000/svg" xmlns:xlink="http://www.w3.org/1999/xlink" contentStyleType="text/css" height="1006.25px" preserveAspectRatio="none" style="width:2438px;height:1006px;background:#FFFFFF;" version="1.1" viewBox="0 0 2438 1006" width="2438.5417px" zoomAndPan="magnify"><defs><filter height="300%" id="f1sxcaozwi5r7p" width="300%" x="-1" y="-1"><feGaussianBlur result="blurOut" stdDeviation="2.0833333333333335"/><feColorMatrix in="blurOut" result="blurOut2" type="matrix" values="0 0 0 0 0 0 0 0 0 0 0 0 0 0 0 0 0 0 .4 0"/><feOffset dx="4.166666666666667" dy="4.166666666666667" in="blurOut2" result="blurOut3"/><feBlend in="SourceGraphic" in2="blurOut3" mode="normal"/></filter></defs><g><!--class User--><g id="elem_User"><rect codeLine="14" fill="#FFFFFF" filter="url(#f1sxcaozwi5r7p)" height="193.8721" id="User" rx="2.6042" ry="2.6042" style="stroke:#000000;stroke-width:1.0416666666666667;" width="186.4583" x="1079.6875" y="340.625"/><ellipse cx="1150.2604" cy="356.7785" fill="#FFFFFF" rx="9.375" ry="9.375" style="stroke:#000000;stroke-width:1.0416666666666667;"/><path d="M1153.1413,358.3735 L1155.6315,359.1548 Q1155.0618,361.2218 1153.7272,362.2309 Q1152.4089,363.2401 1150.3581,363.2401 Q1147.8353,363.2401 1146.2077,361.5148 Q1144.5964,359.7895 1144.5964,356.7947 Q1144.5964,353.6372 1146.224,351.8957 Q1147.8516,350.1378 1150.5208,350.1378 Q1152.8483,350.1378 1154.2969,351.505 Q1155.1595,352.3188 1155.599,353.8488 L1153.0599,354.451 Q1152.832,353.4582 1152.1159,352.8885 Q1151.416,352.3188 1150.3906,352.3188 Q1148.9746,352.3188 1148.0957,353.3442 Q1147.2331,354.3533 1147.2331,356.6157 Q1147.2331,359.0083 1148.0957,360.0337 Q1148.9583,361.0591 1150.3418,361.0591 Q1151.3672,361.0591 1152.0996,360.408 Q1152.832,359.757 1153.1413,358.3735 Z " fill="#000000"/><text fill="#000000" font-family="Verdana" font-size="14.5833" lengthAdjust="spacing" textLength="33.3333" x="1170.5729" y="362.5783">User</text><line style="stroke:#000000;stroke-width:1.0416666666666667;" x1="1080.7292" x2="1265.1042" y1="372.9319" y2="372.9319"/><text fill="#000000" font-family="Verdana" font-size="14.5833" lengthAdjust="spacing" textLength="136.4583" x="1088.0208" y="393.8436">-userName: String</text><text fill="#000000" font-family="Verdana" font-size="14.5833" lengthAdjust="spacing" textLength="160.4167" x="1088.0208" y="415.7338">-emailAddress: String</text><text fill="#000000" font-family="Verdana" font-size="14.5833" lengthAdjust="spacing" textLength="134.375" x="1088.0208" y="437.6241">-password: String</text><text fill="#000000" font-family="Verdana" font-size="14.5833" lengthAdjust="spacing" textLength="162.5" x="1088.0208" y="459.5144">-createdOn: DateTime</text><text fill="#000000" font-family="Verdana" font-size="14.5833" lengthAdjust="spacing" textLength="169.7917" x="1088.0208" y="481.4046">-modifiedOn: DateTime</text><text fill="#000000" font-family="Verdana" font-size="14.5833" lengthAdjust="spacing" textLength="132.2917" x="1088.0208" y="503.2949">-isActive: Boolean</text><text fill="#000000" font-family="Verdana" font-size="14.5833" lengthAdjust="spacing" textLength="153.125" x="1088.0208" y="525.1851">-lastLogin: DateTime</text></g><!--class Role--><g id="elem_Role"><rect codeLine="24" fill="#FFFFFF" filter="url(#f1sxcaozwi5r7p)" height="62.5305" id="Role" rx="2.6042" ry="2.6042" style="stroke:#000000;stroke-width:1.0416666666666667;" width="119.7917" x="1422.3958" y="406.25"/><ellipse cx="1460.7813" cy="422.4035" fill="#FFFFFF" rx="9.375" ry="9.375" style="stroke:#000000;stroke-width:1.0416666666666667;"/><path d="M1463.6621,423.9985 L1466.1523,424.7798 Q1465.5827,426.8468 1464.248,427.8559 Q1462.9297,428.8651 1460.8789,428.8651 Q1458.3561,428.8651 1456.7285,427.1398 Q1455.1172,425.4145 1455.1172,422.4197 Q1455.1172,419.2622 1456.7448,417.5207 Q1458.3724,415.7628 1461.0417,415.7628 Q1463.3691,415.7628 1464.8177,417.13 Q1465.6803,417.9438 1466.1198,419.4738 L1463.5807,420.076 Q1463.3529,419.0832 1462.6367,418.5135 Q1461.9368,417.9438 1460.9115,417.9438 Q1459.4954,417.9438 1458.6165,418.9692 Q1457.7539,419.9783 1457.7539,422.2407 Q1457.7539,424.6333 1458.6165,425.6587 Q1459.4792,426.6841 1460.8626,426.6841 Q1461.888,426.6841 1462.6204,426.033 Q1463.3529,425.382 1463.6621,423.9985 Z " fill="#000000"/><text fill="#000000" font-family="Verdana" font-size="14.5833" lengthAdjust="spacing" textLength="31.25" x="1480.8854" y="428.2033">Role</text><line style="stroke:#000000;stroke-width:1.0416666666666667;" x1="1423.4375" x2="1541.1458" y1="438.5569" y2="438.5569"/><text fill="#000000" font-family="Verdana" font-size="14.5833" lengthAdjust="spacing" textLength="103.125" x="1430.7292" y="459.4686">-name: String</text></g><!--class Permission--><g id="elem_Permission"><rect codeLine="28" fill="#FFFFFF" filter="url(#f1sxcaozwi5r7p)" height="84.4208" id="Permission" rx="2.6042" ry="2.6042" style="stroke:#000000;stroke-width:1.0416666666666667;" width="119.7917" x="1422.3958" y="690.625"/><ellipse cx="1439.6875" cy="706.7785" fill="#FFFFFF" rx="9.375" ry="9.375" style="stroke:#000000;stroke-width:1.0416666666666667;"/><path d="M1442.5684,708.3735 L1445.0586,709.1548 Q1444.4889,711.2218 1443.1543,712.2309 Q1441.8359,713.2401 1439.7852,713.2401 Q1437.2624,713.2401 1435.6348,711.5148 Q1434.0234,709.7895 1434.0234,706.7947 Q1434.0234,703.6372 1435.651,701.8957 Q1437.2786,700.1378 1439.9479,700.1378 Q1442.2754,700.1378 1443.724,701.505 Q1444.5866,702.3188 1445.026,703.8488 L1442.487,704.451 Q1442.2591,703.4582 1441.543,702.8885 Q1440.8431,702.3188 1439.8177,702.3188 Q1438.4017,702.3188 1437.5228,703.3442 Q1436.6602,704.3533 1436.6602,706.6157 Q1436.6602,709.0083 1437.5228,710.0337 Q1438.3854,711.0591 1439.7689,711.0591 Q1440.7943,711.0591 1441.5267,710.408 Q1442.2591,709.757 1442.5684,708.3735 Z " fill="#000000"/><text fill="#000000" font-family="Verdana" font-size="14.5833" lengthAdjust="spacing" textLength="78.125" x="1455.1042" y="712.5783">Permission</text><line style="stroke:#000000;stroke-width:1.0416666666666667;" x1="1423.4375" x2="1541.1458" y1="722.9319" y2="722.9319"/><text fill="#000000" font-family="Verdana" font-size="14.5833" lengthAdjust="spacing" textLength="103.125" x="1430.7292" y="743.8436">-name: String</text><text fill="#000000" font-family="Verdana" font-size="14.5833" lengthAdjust="spacing" textLength="97.9167" x="1430.7292" y="765.7338">-code: String</text></g><!--class Project--><g id="elem_Project"><rect codeLine="33" fill="#FFFFFF" filter="url(#f1sxcaozwi5r7p)" height="128.2013" id="Project" rx="2.6042" ry="2.6042" style="stroke:#000000;stroke-width:1.0416666666666667;" width="179.1667" x="1083.3333" y="34.375"/><ellipse cx="1141.4063" cy="50.5285" fill="#FFFFFF" rx="9.375" ry="9.375" style="stroke:#000000;stroke-width:1.0416666666666667;"/><path d="M1144.2871,52.1235 L1146.7773,52.9048 Q1146.2077,54.9718 1144.873,55.9809 Q1143.5547,56.9901 1141.5039,56.9901 Q1138.9811,56.9901 1137.3535,55.2648 Q1135.7422,53.5395 1135.7422,50.5447 Q1135.7422,47.3872 1137.3698,45.6457 Q1138.9974,43.8878 1141.6667,43.8878 Q1143.9941,43.8878 1145.4427,45.255 Q1146.3053,46.0688 1146.7448,47.5988 L1144.2057,48.201 Q1143.9779,47.2082 1143.2617,46.6385 Q1142.5618,46.0688 1141.5365,46.0688 Q1140.1204,46.0688 1139.2415,47.0942 Q1138.3789,48.1033 1138.3789,50.3657 Q1138.3789,52.7583 1139.2415,53.7837 Q1140.1042,54.8091 1141.4876,54.8091 Q1142.513,54.8091 1143.2454,54.158 Q1143.9779,53.507 1144.2871,52.1235 Z " fill="#000000"/><text fill="#000000" font-family="Verdana" font-size="14.5833" lengthAdjust="spacing" textLength="51.0417" x="1161.7188" y="56.3283">Project</text><line style="stroke:#000000;stroke-width:1.0416666666666667;" x1="1084.375" x2="1261.4583" y1="66.6819" y2="66.6819"/><text fill="#000000" font-family="Verdana" font-size="14.5833" lengthAdjust="spacing" textLength="103.125" x="1091.6667" y="87.5936">-name: String</text><text fill="#000000" font-family="Verdana" font-size="14.5833" lengthAdjust="spacing" textLength="97.9167" x="1091.6667" y="109.4838">-code: String</text><text fill="#000000" font-family="Verdana" font-size="14.5833" lengthAdjust="spacing" textLength="143.75" x="1091.6667" y="131.3741">-description: String</text><text fill="#000000" font-family="Verdana" font-size="14.5833" lengthAdjust="spacing" textLength="162.5" x="1091.6667" y="153.2644">-createdOn: DateTime</text></g><!--class Tag--><g id="elem_Tag"><rect codeLine="40" fill="#FFFFFF" filter="url(#f1sxcaozwi5r7p)" height="62.5305" id="Tag" rx="2.6042" ry="2.6042" style="stroke:#000000;stroke-width:1.0416666666666667;" width="119.7917" x="783.8542" y="67.1875"/><ellipse cx="824.2188" cy="83.341" fill="#FFFFFF" rx="9.375" ry="9.375" style="stroke:#000000;stroke-width:1.0416666666666667;"/><path d="M827.0996,84.936 L829.5898,85.7173 Q829.0202,87.7843 827.6855,88.7934 Q826.3672,89.8026 824.3164,89.8026 Q821.7936,89.8026 820.166,88.0773 Q818.5547,86.352 818.5547,83.3572 Q818.5547,80.1997 820.1823,78.4582 Q821.8099,76.7003 824.4792,76.7003 Q826.8066,76.7003 828.2552,78.0675 Q829.1178,78.8813 829.5573,80.4113 L827.0182,81.0135 Q826.7904,80.0207 826.0742,79.451 Q825.3743,78.8813 824.349,78.8813 Q822.9329,78.8813 822.054,79.9067 Q821.1914,80.9158 821.1914,83.1782 Q821.1914,85.5708 822.054,86.5962 Q822.9167,87.6216 824.3001,87.6216 Q825.3255,87.6216 826.0579,86.9705 Q826.7904,86.3195 827.0996,84.936 Z " fill="#000000"/><text fill="#000000" font-family="Verdana" font-size="14.5833" lengthAdjust="spacing" textLength="27.0833" x="844.5313" y="89.1408">Tag</text><line style="stroke:#000000;stroke-width:1.0416666666666667;" x1="784.8958" x2="902.6042" y1="99.4944" y2="99.4944"/><text fill="#000000" font-family="Verdana" font-size="14.5833" lengthAdjust="spacing" textLength="103.125" x="792.1875" y="120.4061">-name: String</text></g><!--class WorkItem--><g id="elem_WorkItem"><rect codeLine="47" fill="#FFFFFF" filter="url(#f1sxcaozwi5r7p)" height="193.8721" id="WorkItem" rx="2.6042" ry="2.6042" style="stroke:#000000;stroke-width:1.0416666666666667;" width="204.1667" x="718.75" y="340.625"/><ellipse cx="778.3854" cy="356.7785" fill="#FFFFFF" rx="9.375" ry="9.375" style="stroke:#000000;stroke-width:1.0416666666666667;"/><path d="M781.2663,358.3735 L783.7565,359.1548 Q783.1868,361.2218 781.8522,362.2309 Q780.5339,363.2401 778.4831,363.2401 Q775.9603,363.2401 774.3327,361.5148 Q772.7214,359.7895 772.7214,356.7947 Q772.7214,353.6372 774.349,351.8957 Q775.9766,350.1378 778.6458,350.1378 Q780.9733,350.1378 782.4219,351.505 Q783.2845,352.3188 783.724,353.8488 L781.1849,354.451 Q780.957,353.4582 780.2409,352.8885 Q779.541,352.3188 778.5156,352.3188 Q777.0996,352.3188 776.2207,353.3442 Q775.3581,354.3533 775.3581,356.6157 Q775.3581,359.0083 776.2207,360.0337 Q777.0833,361.0591 778.4668,361.0591 Q779.4922,361.0591 780.2246,360.408 Q780.957,359.757 781.2663,358.3735 Z " fill="#000000"/><text fill="#000000" font-family="Verdana" font-size="14.5833" lengthAdjust="spacing" textLength="72.9167" x="798.6979" y="362.5783">WorkItem</text><line style="stroke:#000000;stroke-width:1.0416666666666667;" x1="719.7917" x2="921.875" y1="372.9319" y2="372.9319"/><text fill="#000000" font-family="Verdana" font-size="14.5833" lengthAdjust="spacing" textLength="142.7083" x="727.0833" y="393.8436">-controlNo: Integer</text><text fill="#000000" font-family="Verdana" font-size="14.5833" lengthAdjust="spacing" textLength="143.75" x="727.0833" y="415.7338">-description: String</text><text fill="#000000" font-family="Verdana" font-size="14.5833" lengthAdjust="spacing" textLength="123.9583" x="727.0833" y="437.6241">-priority: Integer</text><text fill="#000000" font-family="Verdana" font-size="14.5833" lengthAdjust="spacing" textLength="159.375" x="727.0833" y="459.5144">-type: WorkItemType</text><text fill="#000000" font-family="Verdana" font-size="14.5833" lengthAdjust="spacing" textLength="187.5" x="727.0833" y="481.4046">-status: WorkItemStatus</text><text fill="#000000" font-family="Verdana" font-size="14.5833" lengthAdjust="spacing" textLength="148.9583" x="727.0833" y="503.2949">-dueDate: DateTime</text><text fill="#000000" font-family="Verdana" font-size="14.5833" lengthAdjust="spacing" textLength="185.4167" x="727.0833" y="525.1851">-estimatedEffort: Integer</text></g><!--class Relation--><g id="elem_Relation"><rect codeLine="57" fill="#FFFFFF" filter="url(#f1sxcaozwi5r7p)" height="62.5305" id="Relation" rx="2.6042" ry="2.6042" style="stroke:#000000;stroke-width:1.0416666666666667;" width="159.375" x="741.1458" y="931.25"/><ellipse cx="785.6771" cy="947.4035" fill="#FFFFFF" rx="9.375" ry="9.375" style="stroke:#000000;stroke-width:1.0416666666666667;"/><path d="M788.5579,948.9985 L791.0482,949.7798 Q790.4785,951.8468 789.1439,952.8559 Q787.8255,953.8651 785.7747,953.8651 Q783.252,953.8651 781.6243,952.1398 Q780.013,950.4145 780.013,947.4197 Q780.013,944.2622 781.6406,942.5207 Q783.2682,940.7628 785.9375,940.7628 Q788.265,940.7628 789.7135,942.13 Q790.5762,942.9438 791.0156,944.4738 L788.4766,945.076 Q788.2487,944.0832 787.5326,943.5135 Q786.8327,942.9438 785.8073,942.9438 Q784.3913,942.9438 783.5124,943.9692 Q782.6497,944.9783 782.6497,947.2407 Q782.6497,949.6333 783.5124,950.6587 Q784.375,951.6841 785.7585,951.6841 Q786.7839,951.6841 787.5163,951.033 Q788.2487,950.382 788.5579,948.9985 Z " fill="#000000"/><text fill="#000000" font-family="Verdana" font-size="14.5833" lengthAdjust="spacing" textLength="58.3333" x="805.9896" y="953.2033">Relation</text><line style="stroke:#000000;stroke-width:1.0416666666666667;" x1="742.1875" x2="899.4792" y1="963.5569" y2="963.5569"/><text fill="#000000" font-family="Verdana" font-size="14.5833" lengthAdjust="spacing" textLength="142.7083" x="749.4792" y="984.4686">-linkType: LinkType</text></g><ellipse cx="820.8333" cy="732.8125" fill="#000000" rx="2.0833" ry="2.0833" style="stroke:#000000;stroke-width:1.0416666666666667;"/><g id="elem_GMN17"><path d="M1057.2917,949.4792 L1057.2917,958.3333 L900.7708,962.5 L1057.2917,966.6667 L1057.2917,975.3118 A2.6042,2.6042 0 0 0 1059.8958,977.916 L1431.7708,977.916 A2.6042,2.6042 0 0 0 1434.375,975.3118 L1434.375,957.2917 L1423.9583,946.875 L1059.8958,946.875 A2.6042,2.6042 0 0 0 1057.2917,949.4792 " fill="#FFFFFF" filter="url(#f1sxcaozwi5r7p)" style="stroke:#000000;stroke-width:1.0416666666666667;"/><path d="M1423.9583,946.875 L1423.9583,955.9896 A1.3021,1.3021 0 0 0 1425.2604,957.2917 L1434.375,957.2917 L1423.9583,946.875 " fill="#FFFFFF" style="stroke:#000000;stroke-width:1.0416666666666667;"/><text fill="#000000" font-family="Verdana" font-size="13.5417" lengthAdjust="spacing" textLength="351.0417" x="1065.625" y="967.7811">Relation can not be applied to the work item itself.</text></g><!--class LinkType--><g id="elem_LinkType"><rect codeLine="68" fill="#FFFFFF" filter="url(#f1sxcaozwi5r7p)" height="171.9818" id="LinkType" rx="2.6042" ry="2.6042" style="stroke:#000000;stroke-width:1.0416666666666667;" width="97.9167" x="1717.7083" y="12.5"/><ellipse cx="1731.25" cy="28.6535" fill="#FFFFFF" rx="9.375" ry="9.375" style="stroke:#000000;stroke-width:1.0416666666666667;"/><path d="M1726.8066,34.9035 L1726.8066,22.2244 L1736.2142,22.2244 L1736.2142,24.3729 L1729.362,24.3729 L1729.362,27.1886 L1735.7259,27.1886 L1735.7259,29.3208 L1729.362,29.3208 L1729.362,32.7713 L1736.4583,32.7713 L1736.4583,34.9035 L1726.8066,34.9035 Z " fill="#000000"/><text fill="#000000" font-family="Verdana" font-size="14.5833" lengthAdjust="spacing" textLength="64.5833" x="1745.8333" y="34.4533">LinkType</text><line style="stroke:#000000;stroke-width:1.0416666666666667;" x1="1718.75" x2="1814.5833" y1="44.8069" y2="44.8069"/><text fill="#000000" font-family="Verdana" font-size="14.5833" lengthAdjust="spacing" textLength="46.875" x="1726.0417" y="65.7186">Blocks</text><text fill="#000000" font-family="Verdana" font-size="14.5833" lengthAdjust="spacing" textLength="75" x="1726.0417" y="87.6088">BlockedBy</text><text fill="#000000" font-family="Verdana" font-size="14.5833" lengthAdjust="spacing" textLength="71.875" x="1726.0417" y="109.4991">RelatesTo</text><text fill="#000000" font-family="Verdana" font-size="14.5833" lengthAdjust="spacing" textLength="75" x="1726.0417" y="131.3894">Duplicates</text><text fill="#000000" font-family="Verdana" font-size="14.5833" lengthAdjust="spacing" textLength="52.0833" x="1726.0417" y="153.2796">ChildOf</text><text fill="#000000" font-family="Verdana" font-size="14.5833" lengthAdjust="spacing" textLength="63.5417" x="1726.0417" y="175.1699">ParentOf</text></g><!--class Attachment--><g id="elem_Attachment"><rect codeLine="80" fill="#FFFFFF" filter="url(#f1sxcaozwi5r7p)" height="150.0916" id="Attachment" rx="2.6042" ry="2.6042" style="stroke:#000000;stroke-width:1.0416666666666667;" width="179.1667" x="12.5" y="362.5"/><ellipse cx="53.3854" cy="378.6535" fill="#FFFFFF" rx="9.375" ry="9.375" style="stroke:#000000;stroke-width:1.0416666666666667;"/><path d="M56.2663,380.2485 L58.7565,381.0298 Q58.1868,383.0968 56.8522,384.1059 Q55.5339,385.1151 53.4831,385.1151 Q50.9603,385.1151 49.3327,383.3898 Q47.7214,381.6645 47.7214,378.6697 Q47.7214,375.5122 49.349,373.7707 Q50.9766,372.0128 53.6458,372.0128 Q55.9733,372.0128 57.4219,373.38 Q58.2845,374.1938 58.724,375.7238 L56.1849,376.326 Q55.957,375.3332 55.2409,374.7635 Q54.541,374.1938 53.5156,374.1938 Q52.0996,374.1938 51.2207,375.2192 Q50.3581,376.2283 50.3581,378.4907 Q50.3581,380.8833 51.2207,381.9087 Q52.0833,382.9341 53.4668,382.9341 Q54.4922,382.9341 55.2246,382.283 Q55.957,381.632 56.2663,380.2485 Z " fill="#000000"/><text fill="#000000" font-family="Verdana" font-size="14.5833" lengthAdjust="spacing" textLength="85.4167" x="73.6979" y="384.4533">Attachment</text><line style="stroke:#000000;stroke-width:1.0416666666666667;" x1="13.5417" x2="190.625" y1="394.8069" y2="394.8069"/><text fill="#000000" font-family="Verdana" font-size="14.5833" lengthAdjust="spacing" textLength="123.9583" x="20.8333" y="415.7186">-fileName: String</text><text fill="#000000" font-family="Verdana" font-size="14.5833" lengthAdjust="spacing" textLength="118.75" x="20.8333" y="437.6088">-fileType: String</text><text fill="#000000" font-family="Verdana" font-size="14.5833" lengthAdjust="spacing" textLength="121.875" x="20.8333" y="459.4991">-fileSize: Integer</text><text fill="#000000" font-family="Verdana" font-size="14.5833" lengthAdjust="spacing" textLength="162.5" x="20.8333" y="481.3894">-createdOn: DateTime</text><text fill="#000000" font-family="Verdana" font-size="14.5833" lengthAdjust="spacing" textLength="125" x="20.8333" y="503.2796">-createdBy: User</text></g><!--class Comment--><g id="elem_Comment"><rect codeLine="134" fill="#FFFFFF" filter="url(#f1sxcaozwi5r7p)" height="62.5305" id="Comment" rx="2.6042" ry="2.6042" style="stroke:#000000;stroke-width:1.0416666666666667;" width="136.4583" x="979.6875" y="701.5625"/><ellipse cx="1007.7604" cy="717.716" fill="#FFFFFF" rx="9.375" ry="9.375" style="stroke:#000000;stroke-width:1.0416666666666667;"/><path d="M1010.6413,719.311 L1013.1315,720.0923 Q1012.5618,722.1593 1011.2272,723.1684 Q1009.9089,724.1776 1007.8581,724.1776 Q1005.3353,724.1776 1003.7077,722.4523 Q1002.0964,720.727 1002.0964,717.7322 Q1002.0964,714.5747 1003.724,712.8332 Q1005.3516,711.0753 1008.0208,711.0753 Q1010.3483,711.0753 1011.7969,712.4425 Q1012.6595,713.2563 1013.099,714.7863 L1010.5599,715.3885 Q1010.332,714.3957 1009.6159,713.826 Q1008.916,713.2563 1007.8906,713.2563 Q1006.4746,713.2563 1005.5957,714.2817 Q1004.7331,715.2908 1004.7331,717.5532 Q1004.7331,719.9458 1005.5957,720.9712 Q1006.4583,721.9966 1007.8418,721.9966 Q1008.8672,721.9966 1009.5996,721.3455 Q1010.332,720.6945 1010.6413,719.311 Z " fill="#000000"/><text fill="#000000" font-family="Verdana" font-size="14.5833" lengthAdjust="spacing" textLength="70.8333" x="1025.5729" y="723.5158">Comment</text><line style="stroke:#000000;stroke-width:1.0416666666666667;" x1="980.7292" x2="1115.1042" y1="733.8694" y2="733.8694"/><text fill="#000000" font-family="Verdana" font-size="14.5833" lengthAdjust="spacing" textLength="119.7917" x="988.0208" y="754.7811">-content: String</text></g><!--class WorkItemHistory--><g id="elem_WorkItemHistory"><rect codeLine="90" fill="#FFFFFF" filter="url(#f1sxcaozwi5r7p)" height="171.9818" id="WorkItemHistory" rx="2.6042" ry="2.6042" style="stroke:#000000;stroke-width:1.0416666666666667;" width="214.5833" x="347.9167" y="351.5625"/><ellipse cx="386.7708" cy="367.716" fill="#FFFFFF" rx="9.375" ry="9.375" style="stroke:#000000;stroke-width:1.0416666666666667;"/><path d="M389.6517,369.311 L392.1419,370.0923 Q391.5723,372.1593 390.2376,373.1684 Q388.9193,374.1776 386.8685,374.1776 Q384.3457,374.1776 382.7181,372.4523 Q381.1068,370.727 381.1068,367.7322 Q381.1068,364.5747 382.7344,362.8332 Q384.362,361.0753 387.0313,361.0753 Q389.3587,361.0753 390.8073,362.4425 Q391.6699,363.2563 392.1094,364.7863 L389.5703,365.3885 Q389.3424,364.3957 388.6263,363.826 Q387.9264,363.2563 386.901,363.2563 Q385.485,363.2563 384.6061,364.2817 Q383.7435,365.2908 383.7435,367.5532 Q383.7435,369.9458 384.6061,370.9712 Q385.4688,371.9966 386.8522,371.9966 Q387.8776,371.9966 388.61,371.3455 Q389.3424,370.6945 389.6517,369.311 Z " fill="#000000"/><text fill="#000000" font-family="Verdana" font-size="14.5833" lengthAdjust="spacing" textLength="125" x="406.9792" y="373.5158">WorkItemHistory</text><line style="stroke:#000000;stroke-width:1.0416666666666667;" x1="348.9583" x2="561.4583" y1="383.8694" y2="383.8694"/><text fill="#000000" font-family="Verdana" font-size="14.5833" lengthAdjust="spacing" textLength="169.7917" x="356.25" y="404.7811">-changedOn: DateTime</text><text fill="#000000" font-family="Verdana" font-size="14.5833" lengthAdjust="spacing" textLength="132.2917" x="356.25" y="426.6713">-changedBy: User</text><text fill="#000000" font-family="Verdana" font-size="14.5833" lengthAdjust="spacing" textLength="133.3333" x="356.25" y="448.5616">-fieldName: String</text><text fill="#000000" font-family="Verdana" font-size="14.5833" lengthAdjust="spacing" textLength="125" x="356.25" y="470.4519">-oldValue: String</text><text fill="#000000" font-family="Verdana" font-size="14.5833" lengthAdjust="spacing" textLength="132.2917" x="356.25" y="492.3421">-newValue: String</text><text fill="#000000" font-family="Verdana" font-size="14.5833" lengthAdjust="spacing" textLength="197.9167" x="356.25" y="514.2324">-changeDescription: String</text></g><!--class WorkItemStatus--><g id="elem_WorkItemStatus"><rect codeLine="99" fill="#FFFFFF" filter="url(#f1sxcaozwi5r7p)" height="171.9818" id="WorkItemStatus" rx="2.6042" ry="2.6042" style="stroke:#000000;stroke-width:1.0416666666666667;" width="155.2083" x="1972.3958" y="12.5"/><ellipse cx="1985.9375" cy="28.6535" fill="#FFFFFF" rx="9.375" ry="9.375" style="stroke:#000000;stroke-width:1.0416666666666667;"/><path d="M1981.4941,34.9035 L1981.4941,22.2244 L1990.9017,22.2244 L1990.9017,24.3729 L1984.0495,24.3729 L1984.0495,27.1886 L1990.4134,27.1886 L1990.4134,29.3208 L1984.0495,29.3208 L1984.0495,32.7713 L1991.1458,32.7713 L1991.1458,34.9035 L1981.4941,34.9035 Z " fill="#000000"/><text fill="#000000" font-family="Verdana" font-size="14.5833" lengthAdjust="spacing" textLength="121.875" x="2000.5208" y="34.4533">WorkItemStatus</text><line style="stroke:#000000;stroke-width:1.0416666666666667;" x1="1973.4375" x2="2126.5625" y1="44.8069" y2="44.8069"/><text fill="#000000" font-family="Verdana" font-size="14.5833" lengthAdjust="spacing" textLength="30.2083" x="1980.7292" y="65.7186">New</text><text fill="#000000" font-family="Verdana" font-size="14.5833" lengthAdjust="spacing" textLength="43.75" x="1980.7292" y="87.6088">Active</text><text fill="#000000" font-family="Verdana" font-size="14.5833" lengthAdjust="spacing" textLength="110.4167" x="1980.7292" y="109.4991">InDevelopment</text><text fill="#000000" font-family="Verdana" font-size="14.5833" lengthAdjust="spacing" textLength="68.75" x="1980.7292" y="131.3894">InTesting</text><text fill="#000000" font-family="Verdana" font-size="14.5833" lengthAdjust="spacing" textLength="65.625" x="1980.7292" y="153.2796">Resolved</text><text fill="#000000" font-family="Verdana" font-size="14.5833" lengthAdjust="spacing" textLength="48.9583" x="1980.7292" y="175.1699">Closed</text></g><!--class WorkItemType--><g id="elem_WorkItemType"><rect codeLine="108" fill="#FFFFFF" filter="url(#f1sxcaozwi5r7p)" height="171.9818" id="WorkItemType" rx="2.6042" ry="2.6042" style="stroke:#000000;stroke-width:1.0416666666666667;" width="141.6667" x="2284.375" y="12.5"/><ellipse cx="2297.9167" cy="28.6535" fill="#FFFFFF" rx="9.375" ry="9.375" style="stroke:#000000;stroke-width:1.0416666666666667;"/><path d="M2293.4733,34.9035 L2293.4733,22.2244 L2302.8809,22.2244 L2302.8809,24.3729 L2296.0286,24.3729 L2296.0286,27.1886 L2302.3926,27.1886 L2302.3926,29.3208 L2296.0286,29.3208 L2296.0286,32.7713 L2303.125,32.7713 L2303.125,34.9035 L2293.4733,34.9035 Z " fill="#000000"/><text fill="#000000" font-family="Verdana" font-size="14.5833" lengthAdjust="spacing" textLength="108.3333" x="2312.5" y="34.4533">WorkItemType</text><line style="stroke:#000000;stroke-width:1.0416666666666667;" x1="2285.4167" x2="2425" y1="44.8069" y2="44.8069"/><text fill="#000000" font-family="Verdana" font-size="14.5833" lengthAdjust="spacing" textLength="29.1667" x="2292.7083" y="65.7186">Epic</text><text fill="#000000" font-family="Verdana" font-size="14.5833" lengthAdjust="spacing" textLength="55.2083" x="2292.7083" y="87.6088">Feature</text><text fill="#000000" font-family="Verdana" font-size="14.5833" lengthAdjust="spacing" textLength="73.9583" x="2292.7083" y="109.4991">UserStory</text><text fill="#000000" font-family="Verdana" font-size="14.5833" lengthAdjust="spacing" textLength="34.375" x="2292.7083" y="131.3894">Task</text><text fill="#000000" font-family="Verdana" font-size="14.5833" lengthAdjust="spacing" textLength="29.1667" x="2292.7083" y="153.2796">Bug</text><text fill="#000000" font-family="Verdana" font-size="14.5833" lengthAdjust="spacing" textLength="60.4167" x="2292.7083" y="175.1699">Subtask</text></g><!--class Date--><g id="elem_Date"><rect codeLine="117" fill="#FFFFFF" filter="url(#f1sxcaozwi5r7p)" height="125.6694" id="Date" rx="2.6042" ry="2.6042" style="stroke:#000000;stroke-width:1.0416666666666667;" width="136.4583" x="1698.4375" y="374.4792"/><ellipse cx="1728.3854" cy="400.3118" fill="#FFFFFF" rx="9.375" ry="9.375" style="stroke:#000000;stroke-width:1.0416666666666667;"/><path d="M1731.2663,401.9068 L1733.7565,402.6881 Q1733.1868,404.7551 1731.8522,405.7643 Q1730.5339,406.7734 1728.4831,406.7734 Q1725.9603,406.7734 1724.3327,405.0481 Q1722.7214,403.3229 1722.7214,400.3281 Q1722.7214,397.1705 1724.349,395.429 Q1725.9766,393.6712 1728.6458,393.6712 Q1730.9733,393.6712 1732.4219,395.0384 Q1733.2845,395.8522 1733.724,397.3821 L1731.1849,397.9843 Q1730.957,396.9915 1730.2409,396.4218 Q1729.541,395.8522 1728.5156,395.8522 Q1727.0996,395.8522 1726.2207,396.8775 Q1725.3581,397.8867 1725.3581,400.149 Q1725.3581,402.5416 1726.2207,403.567 Q1727.0833,404.5924 1728.4668,404.5924 Q1729.4922,404.5924 1730.2246,403.9413 Q1730.957,403.2903 1731.2663,401.9068 Z " fill="#000000"/><text fill="#000000" font-family="Verdana" font-size="12.5" font-style="italic" lengthAdjust="spacing" textLength="70.8333" x="1744.5313" y="394.338">&#171;datatype&#187;</text><text fill="#000000" font-family="Verdana" font-size="14.5833" lengthAdjust="spacing" textLength="34.375" x="1762.7604" y="415.7908">Date</text><line style="stroke:#000000;stroke-width:1.0416666666666667;" x1="1699.4792" x2="1833.8542" y1="426.1444" y2="426.1444"/><text fill="#000000" font-family="Verdana" font-size="14.5833" lengthAdjust="spacing" textLength="97.9167" x="1706.7708" y="447.0561">-day: Integer</text><text fill="#000000" font-family="Verdana" font-size="14.5833" lengthAdjust="spacing" textLength="119.7917" x="1706.7708" y="468.9463">-month: Integer</text><text fill="#000000" font-family="Verdana" font-size="14.5833" lengthAdjust="spacing" textLength="103.125" x="1706.7708" y="490.8366">-year: Integer</text></g><!--class Time--><g id="elem_Time"><rect codeLine="123" fill="#FFFFFF" filter="url(#f1sxcaozwi5r7p)" height="125.6694" id="Time" rx="2.6042" ry="2.6042" style="stroke:#000000;stroke-width:1.0416666666666667;" width="140.625" x="1991.1458" y="374.4792"/><ellipse cx="2022.9688" cy="400.3118" fill="#FFFFFF" rx="9.375" ry="9.375" style="stroke:#000000;stroke-width:1.0416666666666667;"/><path d="M2025.8496,401.9068 L2028.3398,402.6881 Q2027.7702,404.7551 2026.4355,405.7643 Q2025.1172,406.7734 2023.0664,406.7734 Q2020.5436,406.7734 2018.916,405.0481 Q2017.3047,403.3229 2017.3047,400.3281 Q2017.3047,397.1705 2018.9323,395.429 Q2020.5599,393.6712 2023.2292,393.6712 Q2025.5566,393.6712 2027.0052,395.0384 Q2027.8678,395.8522 2028.3073,397.3821 L2025.7682,397.9843 Q2025.5404,396.9915 2024.8242,396.4218 Q2024.1243,395.8522 2023.099,395.8522 Q2021.6829,395.8522 2020.804,396.8775 Q2019.9414,397.8867 2019.9414,400.149 Q2019.9414,402.5416 2020.804,403.567 Q2021.6667,404.5924 2023.0501,404.5924 Q2024.0755,404.5924 2024.8079,403.9413 Q2025.5404,403.2903 2025.8496,401.9068 Z " fill="#000000"/><text fill="#000000" font-family="Verdana" font-size="12.5" font-style="italic" lengthAdjust="spacing" textLength="70.8333" x="2039.5313" y="394.338">&#171;datatype&#187;</text><text fill="#000000" font-family="Verdana" font-size="14.5833" lengthAdjust="spacing" textLength="34.375" x="2057.7604" y="415.7908">Time</text><line style="stroke:#000000;stroke-width:1.0416666666666667;" x1="1992.1875" x2="2130.7292" y1="426.1444" y2="426.1444"/><text fill="#000000" font-family="Verdana" font-size="14.5833" lengthAdjust="spacing" textLength="106.25" x="1999.4792" y="447.0561">-hour: Integer</text><text fill="#000000" font-family="Verdana" font-size="14.5833" lengthAdjust="spacing" textLength="121.875" x="1999.4792" y="468.9463">-minute: Integer</text><text fill="#000000" font-family="Verdana" font-size="14.5833" lengthAdjust="spacing" textLength="123.9583" x="1999.4792" y="490.8366">-second: Integer</text></g><!--class DateTime--><g id="elem_DateTime"><rect codeLine="129" fill="#FFFFFF" filter="url(#f1sxcaozwi5r7p)" height="103.7791" id="DateTime" rx="2.6042" ry="2.6042" style="stroke:#000000;stroke-width:1.0416666666666667;" width="102.0833" x="2288.5417" y="385.4167"/><ellipse cx="2302.0833" cy="411.2493" fill="#FFFFFF" rx="9.375" ry="9.375" style="stroke:#000000;stroke-width:1.0416666666666667;"/><path d="M2304.9642,412.8443 L2307.4544,413.6256 Q2306.8848,415.6926 2305.5501,416.7018 Q2304.2318,417.7109 2302.181,417.7109 Q2299.6582,417.7109 2298.0306,415.9856 Q2296.4193,414.2604 2296.4193,411.2656 Q2296.4193,408.108 2298.0469,406.3665 Q2299.6745,404.6087 2302.3438,404.6087 Q2304.6712,404.6087 2306.1198,405.9759 Q2306.9824,406.7897 2307.4219,408.3196 L2304.8828,408.9218 Q2304.6549,407.929 2303.9388,407.3593 Q2303.2389,406.7897 2302.2135,406.7897 Q2300.7975,406.7897 2299.9186,407.815 Q2299.056,408.8242 2299.056,411.0865 Q2299.056,413.4791 2299.9186,414.5045 Q2300.7813,415.5299 2302.1647,415.5299 Q2303.1901,415.5299 2303.9225,414.8788 Q2304.6549,414.2278 2304.9642,412.8443 Z " fill="#000000"/><text fill="#000000" font-family="Verdana" font-size="12.5" font-style="italic" lengthAdjust="spacing" textLength="70.8333" x="2315.625" y="405.2755">&#171;datatype&#187;</text><text fill="#000000" font-family="Verdana" font-size="14.5833" lengthAdjust="spacing" textLength="68.75" x="2316.6667" y="426.7283">DateTime</text><line style="stroke:#000000;stroke-width:1.0416666666666667;" x1="2289.5833" x2="2389.5833" y1="437.0819" y2="437.0819"/><text fill="#000000" font-family="Verdana" font-size="14.5833" lengthAdjust="spacing" textLength="85.4167" x="2296.875" y="457.9936">-date: Date</text><text fill="#000000" font-family="Verdana" font-size="14.5833" lengthAdjust="spacing" textLength="84.375" x="2296.875" y="479.8838">-time: Time</text></g><!--link Tag to Project--><g id="link_Tag_Project"><path codeLine="44" d="M903.7396,98.9583 C953.9063,98.9583 1026.1979,98.9583 1083.2292,98.9583 " fill="none" id="Tag-Project" style="stroke:#000000;stroke-width:1.0416666666666667;"/><polygon fill="#000000" points="980.9896,110.3121,971.5676,107.2508,971.5676,113.3735,980.9896,110.3121" style="stroke:#000000;stroke-width:1.0416666666666667;"/><text fill="#000000" font-family="Verdana" font-size="13.5417" lengthAdjust="spacing" textLength="71.875" x="987.2396" y="115.6977">belongs to</text><text fill="#000000" font-family="Verdana" font-size="13.5417" lengthAdjust="spacing" textLength="28.125" x="914.1502" y="93.8829">0..*</text><text fill="#000000" font-family="Verdana" font-size="13.5417" lengthAdjust="spacing" textLength="8.3333" x="1064.5679" y="94.0912">1</text></g><!--link Tag to WorkItem--><g id="link_Tag_WorkItem"><path codeLine="45" d="M843.75,129.7292 C843.75,177.1875 843.75,269.375 843.75,340.5417 " fill="none" id="Tag-WorkItem" style="stroke:#000000;stroke-width:1.0416666666666667;"/><polygon fill="#000000" points="764.5833,229.8226,767.6447,220.4006,761.522,220.4006,764.5833,229.8226" style="stroke:#000000;stroke-width:1.0416666666666667;"/><text fill="#000000" font-family="Verdana" font-size="13.5417" lengthAdjust="spacing" textLength="64.5833" x="776.0417" y="229.9998">describes</text><text fill="#000000" font-family="Verdana" font-size="13.5417" lengthAdjust="spacing" textLength="28.125" x="810.2116" y="154.0045">0..*</text><text fill="#000000" font-family="Verdana" font-size="13.5417" lengthAdjust="spacing" textLength="8.3333" x="834.7656" y="327.2955">1</text></g><!--link WorkItem to apoint12--><g id="link_WorkItem_apoint12"><path d="M820.8333,534.6042 C820.8333,613.2813 820.8333,713.7292 820.8333,730.4167 " fill="none" id="WorkItem-apoint12" style="stroke:#000000;stroke-width:1.0416666666666667;"/><polygon fill="#000000" points="738.5417,627.1976,741.603,617.7756,735.4803,617.7756,738.5417,627.1976" style="stroke:#000000;stroke-width:1.0416666666666667;"/><text fill="#000000" font-family="Verdana" font-size="13.5417" lengthAdjust="spacing" textLength="67.7083" x="750" y="627.3748">related to</text><text fill="#000000" font-family="Verdana" font-size="13.5417" lengthAdjust="spacing" textLength="28.125" x="789.3888" y="558.5213">0..*</text></g><!--link apoint12 to WorkItem--><g id="link_apoint12_WorkItem"><path d="M818.6354,733.3333 C810.1458,733.3333 779.9479,733.3333 779.9479,733.3333 C779.9479,733.3333 779.9479,621 779.9479,534.7813 " fill="none" id="apoint12-WorkItem" style="stroke:#000000;stroke-width:1.0416666666666667;"/><text fill="#000000" font-family="Verdana" font-size="13.5417" lengthAdjust="spacing" textLength="8.3333" x="766.0697" y="558.3759">1</text></g><!--link apoint12 to Relation--><g id="link_apoint12_Relation"><path d="M820.8333,735.3958 C820.8333,754.3646 820.8333,873.2188 820.8333,931.0104 " fill="none" id="apoint12-Relation" style="stroke:#000000;stroke-width:1.0416666666666667;stroke-dasharray:7.0,7.0;"/></g><!--link Attachment to WorkItem--><g id="link_Attachment_WorkItem"><path codeLine="77" d="M131.9479,512.7813 C131.9479,522.5104 131.9479,529.1667 131.9479,529.1667 C131.9479,529.1667 526.5417,529.1667 718.4479,529.1667 " fill="none" id="Attachment-WorkItem" style="stroke:#000000;stroke-width:1.0416666666666667;"/><polygon fill="#000000" points="335.748,540.6659,326.4152,537.3426,326.2442,543.463,335.748,540.6659" style="stroke:#000000;stroke-width:1.0416666666666667;"/><text fill="#000000" font-family="Verdana" font-size="13.5417" lengthAdjust="spacing" textLength="71.875" x="342" y="545.9061">belongs to</text><text fill="#000000" font-family="Verdana" font-size="13.5417" lengthAdjust="spacing" textLength="28.125" x="103.0472" y="536.6327">0..*</text><text fill="#000000" font-family="Verdana" font-size="13.5417" lengthAdjust="spacing" textLength="8.3333" x="700.0533" y="531.1039">1</text></g><!--link Attachment to Comment--><g id="link_Attachment_Comment"><path codeLine="78" d="M72.2188,512.5833 C72.2188,596.8438 72.2188,721.875 72.2188,721.875 C72.2188,721.875 757.2188,721.875 979.3125,721.875 " fill="none" id="Attachment-Comment" style="stroke:#000000;stroke-width:1.0416666666666667;"/><polygon fill="#000000" points="339.7417,712.5248,331.2492,707.4235,329.8726,713.3895,339.7417,712.5248" style="stroke:#000000;stroke-width:1.0416666666666667;"/><text fill="#000000" font-family="Verdana" font-size="13.5417" lengthAdjust="spacing" textLength="71.875" x="346.125" y="716.7394">belongs to</text><text fill="#000000" font-family="Verdana" font-size="13.5417" lengthAdjust="spacing" textLength="28.125" x="37.4813" y="536.6827">0..*</text><text fill="#000000" font-family="Verdana" font-size="13.5417" lengthAdjust="spacing" textLength="8.3333" x="960.7087" y="737.5027">1</text></g><!--link WorkItemHistory to WorkItem--><g id="link_WorkItemHistory_WorkItem"><path codeLine="88" d="M562.9271,437.5 C612.1146,437.5 670.0833,437.5 718.5833,437.5 " fill="none" id="WorkItemHistory-WorkItem" style="stroke:#000000;stroke-width:1.0416666666666667;"/><polygon fill="#000000" points="597.0104,426.9788,606.4324,430.0402,606.4324,423.9174,597.0104,426.9788" style="stroke:#000000;stroke-width:1.0416666666666667;"/><text fill="#000000" font-family="Verdana" font-size="13.5417" lengthAdjust="spacing" textLength="23.9583" x="613.6771" y="432.3644">has</text><text fill="#000000" font-family="Verdana" font-size="13.5417" lengthAdjust="spacing" textLength="28.125" x="572.9455" y="432.7954">1..*</text><text fill="#000000" font-family="Verdana" font-size="13.5417" lengthAdjust="spacing" textLength="8.3333" x="699.8596" y="432.6756">1</text></g><!--link Project to WorkItem--><g id="link_Project_WorkItem"><path codeLine="138" d="M1083.1979,146.875 C1008.1563,146.875 913.2813,146.875 913.2813,146.875 C913.2813,146.875 913.2813,255.8333 913.2813,340.3229 " fill="none" id="Project-WorkItem" style="stroke:#000000;stroke-width:1.0416666666666667;"/><polygon fill="#000000" points="846.3024,152.0274,854.8204,146.9687,850.2202,142.9281,846.3024,152.0274" style="stroke:#000000;stroke-width:1.0416666666666667;"/><text fill="#000000" font-family="Verdana" font-size="13.5417" lengthAdjust="spacing" textLength="48.9583" x="861.1979" y="153.4998">defines</text><text fill="#000000" font-family="Verdana" font-size="13.5417" lengthAdjust="spacing" textLength="8.3333" x="1064.5339" y="146.1257">1</text><text fill="#000000" font-family="Verdana" font-size="13.5417" lengthAdjust="spacing" textLength="28.125" x="889.3917" y="327.3914">0..*</text></g><!--link WorkItem to User--><g id="link_WorkItem_User"><path codeLine="139" d="M923.1458,405.2083 C972.5833,405.2083 1031.4896,405.2083 1079.6771,405.2083 " fill="none" id="WorkItem-User" style="stroke:#000000;stroke-width:1.0416666666666667;"/><polygon fill="#000000" points="944.1146,416.5621,953.5365,419.6235,953.5365,413.5008,944.1146,416.5621" style="stroke:#000000;stroke-width:1.0416666666666667;"/><text fill="#000000" font-family="Verdana" font-size="13.5417" lengthAdjust="spacing" textLength="94.7917" x="960.7813" y="421.9477">is assigned to</text><text fill="#000000" font-family="Verdana" font-size="13.5417" lengthAdjust="spacing" textLength="28.125" x="933.1881" y="398.3038">0..*</text><text fill="#000000" font-family="Verdana" font-size="13.5417" lengthAdjust="spacing" textLength="8.3333" x="1061.0214" y="397.6502">1</text></g><!--link WorkItem to User--><g id="link_WorkItem_User"><path codeLine="142" d="M923.1458,469.7917 C972.5833,469.7917 1031.4896,469.7917 1079.6771,469.7917 " fill="none" id="WorkItem-User-1" style="stroke:#000000;stroke-width:1.0416666666666667;"/><polygon fill="#000000" points="976.6667,481.1455,986.0886,484.2069,986.0886,478.0841,976.6667,481.1455" style="stroke:#000000;stroke-width:1.0416666666666667;"/><text fill="#000000" font-family="Verdana" font-size="13.5417" lengthAdjust="spacing" textLength="79.1667" x="993.3333" y="486.5311">is author of</text><text fill="#000000" font-family="Verdana" font-size="13.5417" lengthAdjust="spacing" textLength="28.125" x="933.1881" y="467.2263">0..*</text><text fill="#000000" font-family="Verdana" font-size="13.5417" lengthAdjust="spacing" textLength="8.3333" x="1061.0214" y="467.5818">1</text></g><!--link Project to User--><g id="link_Project_User"><path codeLine="140" d="M1143.0521,162.6146 C1143.0521,212.8125 1143.0521,283.4479 1143.0521,340.5417 " fill="none" id="Project-User" style="stroke:#000000;stroke-width:1.0416666666666667;"/><polygon fill="#000000" points="956.5938,235.8434,953.5324,245.2654,959.6551,245.2654,956.5938,235.8434" style="stroke:#000000;stroke-width:1.0416666666666667;"/><text fill="#000000" font-family="Verdana" font-size="13.5417" lengthAdjust="spacing" textLength="171.875" x="968.0521" y="246.4373">is one of the members of</text><text fill="#000000" font-family="Verdana" font-size="13.5417" lengthAdjust="spacing" textLength="28.125" x="1107.8114" y="186.4554">0..*</text><text fill="#000000" font-family="Verdana" font-size="13.5417" lengthAdjust="spacing" textLength="8.3333" x="1129.5318" y="327.2955">1</text></g><!--link User to Project--><g id="link_User_Project"><path codeLine="141" d="M1202.7813,340.3333 C1202.7813,283.3958 1202.7813,213.0417 1202.7813,162.9063 " fill="none" id="User-Project" style="stroke:#000000;stroke-width:1.0416666666666667;"/><polygon fill="#000000" points="1112.1563,257.7705,1109.0949,267.1924,1115.2176,267.1924,1112.1563,257.7705" style="stroke:#000000;stroke-width:1.0416666666666667;"/><text fill="#000000" font-family="Verdana" font-size="13.5417" lengthAdjust="spacing" textLength="76.0417" x="1123.6146" y="268.3644">is owner of</text><text fill="#000000" font-family="Verdana" font-size="13.5417" lengthAdjust="spacing" textLength="8.3333" x="1194.3202" y="327.4027">1</text><text fill="#000000" font-family="Verdana" font-size="13.5417" lengthAdjust="spacing" textLength="8.3333" x="1194.9474" y="186.779">1</text></g><!--link User to Comment--><g id="link_User_Comment"><path codeLine="143" d="M1097.9167,534.6042 C1097.9167,592.4375 1097.9167,662.0313 1097.9167,701.4792 " fill="none" id="User-Comment" style="stroke:#000000;stroke-width:1.0416666666666667;"/><polygon fill="#000000" points="1004.1667,612.7288,1007.228,603.3068,1001.1053,603.3068,1004.1667,612.7288" style="stroke:#000000;stroke-width:1.0416666666666667;"/><text fill="#000000" font-family="Verdana" font-size="13.5417" lengthAdjust="spacing" textLength="79.1667" x="1015.625" y="612.9061">is author of</text><text fill="#000000" font-family="Verdana" font-size="13.5417" lengthAdjust="spacing" textLength="8.3333" x="1081.2793" y="558.5213">1</text><text fill="#000000" font-family="Verdana" font-size="13.5417" lengthAdjust="spacing" textLength="28.125" x="1075.1139" y="688.4541">0..*</text></g><!--link WorkItem to Comment--><g id="link_WorkItem_Comment"><path codeLine="145" d="M911.7188,534.4688 C911.7188,613.2813 911.7188,711.4583 911.7188,711.4583 C911.7188,711.4583 945.5,711.4583 979.4167,711.4583 " fill="none" id="WorkItem-Comment" style="stroke:#000000;stroke-width:1.0416666666666667;"/><polygon fill="#000000" points="875.0378,651.1559,874.5311,641.2621,868.8124,643.4494,875.0378,651.1559" style="stroke:#000000;stroke-width:1.0416666666666667;"/><text fill="#000000" font-family="Verdana" font-size="13.5417" lengthAdjust="spacing" textLength="23.9583" x="884.6354" y="651.6769">has</text><text fill="#000000" font-family="Verdana" font-size="13.5417" lengthAdjust="spacing" textLength="8.3333" x="907.782" y="558.3755">1</text><text fill="#000000" font-family="Verdana" font-size="13.5417" lengthAdjust="spacing" textLength="28.125" x="941.1405" y="704.4241">0..*</text></g><!--link User to Role--><g id="link_User_Role"><path codeLine="147" d="M1266.1563,437.5 C1316.6875,437.5 1377.6563,437.5 1421.9479,437.5 " fill="none" id="User-Role" style="stroke:#000000;stroke-width:1.0416666666666667;"/><polygon fill="#000000" points="1300.3021,426.9788,1309.724,430.0402,1309.724,423.9174,1300.3021,426.9788" style="stroke:#000000;stroke-width:1.0416666666666667;"/><text fill="#000000" font-family="Verdana" font-size="13.5417" lengthAdjust="spacing" textLength="23.9583" x="1316.9688" y="432.3644">has</text><text fill="#000000" font-family="Verdana" font-size="13.5417" lengthAdjust="spacing" textLength="28.125" x="1276.6144" y="432.6756">0..*</text><text fill="#000000" font-family="Verdana" font-size="13.5417" lengthAdjust="spacing" textLength="28.125" x="1383.8516" y="432.4269">1..*</text></g><!--link Project to Role--><g id="link_Project_Role"><path codeLine="148" d="M1262.8125,98.9583 C1354.1563,98.9583 1482.2917,98.9583 1482.2917,98.9583 C1482.2917,98.9583 1482.2917,321.9167 1482.2917,405.9583 " fill="none" id="Project-Role" style="stroke:#000000;stroke-width:1.0416666666666667;"/><polygon fill="#000000" points="1440.721,127.9606,1443.7101,137.4057,1448.691,133.8449,1440.721,127.9606" style="stroke:#000000;stroke-width:1.0416666666666667;"/><text fill="#000000" font-family="Verdana" font-size="13.5417" lengthAdjust="spacing" textLength="23.9583" x="1455.2083" y="137.5832">has</text><text fill="#000000" font-family="Verdana" font-size="13.5417" lengthAdjust="spacing" textLength="28.125" x="1273.0146" y="94.1756">0..*</text><text fill="#000000" font-family="Verdana" font-size="13.5417" lengthAdjust="spacing" textLength="28.125" x="1448.5514" y="392.8877">1..*</text></g><!--link Role to Permission--><g id="link_Role_Permission"><path codeLine="149" d="M1482.2917,468.8229 C1482.2917,522.1146 1482.2917,630.4583 1482.2917,690.4583 " fill="none" id="Role-Permission" style="stroke:#000000;stroke-width:1.0416666666666667;"/><polygon fill="#000000" points="1443.75,574.3226,1446.8114,564.9006,1440.6886,564.9006,1443.75,574.3226" style="stroke:#000000;stroke-width:1.0416666666666667;"/><text fill="#000000" font-family="Verdana" font-size="13.5417" lengthAdjust="spacing" textLength="23.9583" x="1455.2083" y="574.4998">has</text><text fill="#000000" font-family="Verdana" font-size="13.5417" lengthAdjust="spacing" textLength="8.3333" x="1470.6445" y="492.7145">1</text><text fill="#000000" font-family="Verdana" font-size="13.5417" lengthAdjust="spacing" textLength="28.125" x="1449.3083" y="677.4516">0..*</text></g><!--SRC=[ZLPDRziu4BthLx0vjSKcI0hqOWG1agQB1YZIedRRCosEfLbJf41ICToY_xr3aQ9eIS765vCpZpF3-NZKArT30woL75LXzwXQRdZ3H8liwlAoi2MNmAuoZKG5xjW2qyRLEbEKabjxwvp1RUVWeTHgZR-0NMOGMtEX3wWgvam7cSBeJebI6mM6lS_aIWkmqBAhzxaPmzL-Bcsv4Dxqkw960Qm12a_OekZZOjyjcVvTCFgTiuusZxo15LjJkAgAOcWuobiX35WxKRLauw2Dc8XB0zo1-A9Mx9uM6smWQXejS8UBAhItfSCdydwdjGIkefpYT9zrXVc9FqFytmYPubTvx0do5Ko3rg9Moy0OCgLquQpH_q7fNdmmYAWufS7MaSiN92Ovs_3gsQjutTdbnSNRCtPkpjdPrLcARSMs8BMgB7EQtPmW0_2dDli71mqXGsHRi0ICNfFsTxgGSaRBHxrY3yf11UP_hzKQr0RTSNh23yGgUTZGBYgiuwwpeshTxmS_7VZap1e4hCF6f-_ZRaTJDZeRkm4aTtcXQIhtcpw8pt7bmUdAGvx4B576Mm8HKlfwKFoJ86_OHV9MAEs06Qngn_Hk5FiGKaGbLpIsZch5UDjA3BQ9PHZDpvwXTulEWjnT5A24nq9HqB9hKkpnMdTIbtixBa7S7KTdO3UwtzrtvARqWdxxeKOflkpwzLTkG3dQK3A8cdXPDxIVDbYMZfCEMpWH3dpGJI-Tu6DnicD3UNOeOO5ml3XKRIRst3djikVP9chkg34zqUMr_uJMQNEak9-xSyqjkvvEoN0i3KlDLRNiEsYIx-4E8CN2bRKKFxZifc85XoLni7s_C8z_OikS3bOCzn4E_N_WsNxveExXYOhL-hf4oSOFMlJr3QoMJo122qbjQJdraRNcnnRBVl4l9RupmOU__jfdhTzjkDs7tks2YtMtTLwMfjWdabrV2qwna-cRcvHjmMSKqn1RrLFX4RXPe0TVdMN3jUxCp3AgpisQpGBnerWmFfJ_kSW7GXke4NqFd3u0m_paJ4pxlBW3wVjUzLCNvk-4uNVq9UBvlN_QUvnS0g9bv1ChDR3SYEyIVdnZ2AuLU7xpdDL0imLZ_JO_E7sO_A63_tYPuEO1XNWw-ZOn2qO3DgPd1ituV1dl9vbW_RV2CEzZ2DxJW3c1pD8mGSM78qBILqRoznS0]--></g></svg>